<?xml version="1.0" encoding="UTF-8"?>
<svg id="Layer_1" data-name="Layer 1" xmlns="http://www.w3.org/2000/svg" viewBox="0 0 148.3 188.68">
  <defs>
    <style>
      .cls-1 {
        fill: #f9c2c9;
        stroke: #fff;
      }

      .cls-1, .cls-2 {
        stroke-miterlimit: 10;
      }

      .cls-2 {
        fill: none;
        stroke: #f9c2c9;
        stroke-width: 3px;
      }

      .cls-3 {
        fill: #e0748c;
      }
    </style>
  </defs>
  <circle class="cls-1" cx="75.23" cy="10.32" r="9.82"/>
  <path class="cls-1" d="M14.37,18.64h121.72c4.12,0,7.46,3.34,7.46,7.46h0c0,2.21-1.8,4.01-4.01,4.01H10.91c-2.21,0-4.01-1.8-4.01-4.01h0c0-4.12,3.34-7.46,7.46-7.46Z"/>
  <g>
    <path class="cls-3" d="M3.24,181.4c.78-.47,1.22-.76,2.15-1.43,1.34-1.15,3.65-.32,5.07.31,1.29.57,4.35,2.07,8.47,2.05,4.78-.02,7.14-1.71,7.29-5.09.4-8.88-.22-17.13-.26-18.47-.06-1.96-.45-3.03,4.94-3.76,2.34-.32,3.52-.5,5.91-.92,5.58-.98,5.76,1.44,5.7,3.46-.07,2.23.03,14.79-.07,19.59-.17,7.79-6.78,11.52-20.18,11.52-8.41,0-15.78-1.86-17.92-3.98-2.2-2.19-1.98-2.91-1.08-3.27Z"/>
    <path class="cls-3" d="M71.16,168.18c4.67-.56,9.44-.33,11.38-.09.02-1.03.03-1.54.05-2.57.06-3.38-3.34-4.58-9.42-3.55-7.26,1.24-13.99,4.05-13.99,4.05,0,.06-5.6-3.58-.91-7.25,2.64-1.98,8.91-4.17,17.17-6.31,8.2-2.13,23-1.84,23.22,10.05.11,5.74-.93,15.89-.75,19.86.15,3.39,1.87,6.29-7.84,6.29-4.9,0-7.25-1.12-6.34-6.42-.23,0-.34.01-.57.02,0,0-3.53,6.4-14.89,6.4-9.52,0-16.06-3.24-16.5-8.33-.54-6.26,7.93-10.78,19.41-12.15ZM72.78,181.74c5.38-.26,8.79-3.51,9.61-5.87.02-1.19.03-1.79.06-2.98-.96-.18-3.86-.29-6.97.02-5.23.53-9.46,2.6-9.41,5.3.04,2.33,2.77,3.72,6.71,3.52Z"/>
    <path class="cls-3" d="M109.41,179.12c.37-8.37,1.2-19.77,1.17-24.18,0-1.72-.09-3.11-.07-3.79.1-2.97.22-5.32,6.44-5.78,7.08-.53,8.2,3.22,8.05,8.83.22,0,.33,0,.56,0,1.54-5.54,7.23-9.17,12.75-8.43,7.89,1.06,9.8,5.4,9.54,11.33-.2,4.47-2.94,7.54-8.38,6.7-2.93-.45-3.44-1.33-3.4-3.8.03-2.23-.65-4.01-3.29-4.15-3.37-.17-6.03,4.37-6.33,6.69-.82,6.27-.96,13.21-.32,20.1.26,2.79-.62,5.46-6.57,5.46-2.34,0-3.51,0-5.85,0-3.72,0-3.8-1.66-4.11-3.37-.23-1.25-.29-3.42-.19-5.6Z"/>
  </g>
  <g>
    <path class="cls-3" d="M16.66,77.69c4.42-1.53,7.53,2.47,8.31,3.91.76,1.41,1.68,4.41.11,10.9-.93,3.89-1.82,5.39-1.82,5.39,0,0-2.04-4.93-6.04-4.12-5.09,1.04-7.2,11.46-7.24,23.56-.04,12.21,2.59,22.48,6.9,22.25,2.34-.13,3.9-2.53,4.68-4.06.73-1.42,1.65-2.54,2.35.91.52,2.59.79,3.88,1.31,6.47.45,2.12.77,3.8-.19,5.83-1.32,3.08-4.74,7.61-8.46,7.19-12.39-1.4-14.02-28.29-13.98-38.83.04-11.82,1.66-35.1,14.08-39.39Z"/>
    <path class="cls-3" d="M41.11,89.14c8.72-.55,11.83,21.96,11.62,30.62-.24,10.1-3.65,32.34-12.62,33.73-9.15,1.42-11.43-22.12-11.29-31.05.17-10.38,2.88-32.71,12.29-33.3ZM45.16,120.5c.15-8.79-.78-16.2-4.26-15.92-3.75.3-4.62,8.12-4.76,16.99-.14,8.98.52,17.07,4.17,16.49,3.74-.59,4.7-8.76,4.85-17.55Z"/>
    <path class="cls-3" d="M68.6,90.05c9.06.6,12.13,18.43,12.03,27.34-.11,9.85-2.8,26.7-12.61,29.32-11.02,2.95-11.81-20.47-11.91-27.42-.12-8.85,2.71-29.89,12.48-29.24ZM72.96,117.77c.07-7.59-.93-14.08-4.47-14.13-3.81-.05-4.68,6.92-4.78,14.89-.1,8.07.63,15.27,4.41,14.59,3.87-.7,4.77-7.76,4.84-15.35Z"/>
    <path class="cls-3" d="M85.59,86.53c-.01-5.45-.48-7.21,3.31-5.99,3.93,1.26,4.66,5.48,4.63,9.24-.02,3.04-.39,10.22-.65,13.34.18.06.27.08.45.14.79-4.17,3.55-8.43,8-7.31,4.45,1.12,7.86,6.47,8.14,12.81.36,8.25-4.95,10.61-4.95,10.61.71,2.32,3.4,8.8,4.72,11.44.71,1.66,1.5,2.86,1.5,2.86,0,0-.78,3.19-4.34,3.79-3.06.52-4.29-1.14-5.19-3.39-1.33-3.17-3.2-11.49-4.29-15.92.14-.44.21-.65.35-1.09,2.59-.45,4.54-2.31,4.41-6.08-.1-3.03-1.68-5.2-3.57-5.44-3.02-.39-4.94,5.39-4.9,12.02.02,2.83.07,9.64.17,13.8.08,3.29,1.12,7.65-2.43,8.47-1.19.28-1.79.42-2.99.7-2.71.65-2.78-3.61-2.71-6.91.33-15.57.34-31.47.31-47.08Z"/>
    <path class="cls-3" d="M115.08,126.96c-.12-9.21-.2-16.68-.33-21.68-.06-2.37-1.03-5.3,3.05-4.04,3.3,1.02,4.55,2.45,4.55,6,0,6.7.15,15,.37,19.91.06,1.4.13,2.66.24,3.37.29,2.48.24,4.51-2.26,4.64-1.12.06-1.69.1-2.82.19-2.04.16-2.5-1.84-2.63-3.82-.08-1.15-.14-2.78-.16-4.56ZM114.33,92.29c-.19-4.2,1.44-3.94,3.56-2.99,2.07.93,3.79,2.14,4,5.99.2,3.69-1.5,3.54-3.53,2.83-2.16-.75-3.83-1.75-4.02-5.83Z"/>
    <path class="cls-3" d="M137.88,107.73c6.16,2.41,10,7.76,10,13.31,0,4.32-1.2,4.93-2.96,4.44-4.45-1.26-6.52-2-10.95-3-.03.06-.05.08-.08.14.21,3.44,1.97,6.79,5.69,7.67,2.79.66,5.14-.24,5.78-.44,0,0,1.02,1.24,1.28,3.06.28,1.88-.27,2.93-1.34,3.4-.85.37-3.08.9-6.27.33-7.76-1.37-11.52-8.1-11.83-17.2-.31-8.99,3.47-14.5,10.66-11.69ZM141.38,120.51s.06-.52.04-1.31c-.08-2.57-1.22-4.52-3.53-5.31-3.46-1.19-4.18,2.32-4.02,4.39,3.05.81,4.55,1.25,7.51,2.24Z"/>
  </g>
  <g>
    <path class="cls-3" d="M13.88,38.18c-.78,2.12-5.3,7.6-6.65,8.29-2.81,1.43-3.71.4-2.6-.78.75-.76,1.21-1.09,2.19-1.56,1.38-.68,2.71,0,5.68-1.74,6.88-12.57,18.18-10.03,31.41-10.13,3.23-.02,4.05,0,3.75.94-.17.59-.28.99-.56,1.89-.47,1.39-1.1,1.83-5.11,1.81-5.15-.03-7.72-.01-12.86.1-1.71,6.84,2.32,23.91,2.53,25.28.36,2.34,2.72,5.3-3.8,6.21-2.17.3-3.25.48-5.42.92-4.9.99-5.48-1.7-5.68-3.97-.19-2.17-4.04-21.56-2.89-27.27Z"/>
    <path class="cls-3" d="M55.63,60.75c-.46-8.34-.38-25.34-.16-27.59.1-1.06-1.75-.92,6.26-.92,6.39,0,9.39-.82,9.26,1.5-.09,1.58-1.17,5.35-1.11,9.57.43.04.65.06,1.08.09.47-1.98,5.36-6.61,15.55-6,13.64.82,14.89,11.25,14.51,18.13-.34,6.18-1.39,12.34-1.22,20.82.06,2.94-.07,5.13-6.56,2.72-6.24-2.31-8.44-5.29-8.44-8.44,0-6.04.69-11.72.69-17.71,0-3.51-2.06-6.54-6.64-7.06-5.12-.57-8.51,2.89-8.82,3.8-1.19,3.46.49,10.97.66,13.38.1,1.46.23,2.88.39,3.65.53,2.59.35,4.82-4.48,3.79-2.2-.47-3.31-.69-5.51-1.07-3.9-.68-4.68-2.67-5.04-4.46-.21-1.06-.31-2.58-.4-4.2Z"/>
    <path class="cls-3" d="M134.4,40.93c5.4,2.57,13.27,19.88,13.48,28.53.19,7.62-2.74,9.41-6.06,7.75-8.43-4.21-10.48-6.99-19.54-9.48-.08.09-.11.13-.19.22-.27,5.8,2.58,12.29,10.09,15.04,5.64,2.07,8.96,2.46,10.3,2.3,0,0,2.09,2.47,2.64,5.75.57,3.4-.67,5.43-3.08,5.95-1.9.41-6.37.31-12.57-2.42-12.68-5.57-21.32-19.5-20.69-33,.61-12.93,17.24-24.65,25.62-20.65ZM137,65.9s.15-.9.24-2.39c.28-4.82.4-10.4-4.54-11.17-7.42-1.16-9.69,4.84-9.78,8.33,6.35,1.42,10.74.9,14.09,5.23Z"/>
  </g>
  <path class="cls-2" d="M146.8,49.34v130.38c0,4.12-3.34,7.46-7.46,7.46H8.96c-4.12,0-7.46-3.34-7.46-7.46V49.34c0-4.12,3.34-7.46,7.46-7.46h0c4.12,0,7.46-3.34,7.46-7.46v-3.66h115.46v3.66c0,4.12,3.34,7.46,7.46,7.46h0c4.12,0,7.46,3.34,7.46,7.46Z"/>
</svg>