<?xml version="1.0" encoding="UTF-8"?>
<svg id="Layer_1" xmlns="http://www.w3.org/2000/svg" viewBox="0 0 404.67 404.67">
  <defs>
    <style>
      .cls-1 {
        fill: #536d22;
      }

      .cls-2 {
        fill: #fff;
      }
    </style>
  </defs>
  <circle class="cls-1" cx="202.34" cy="202.34" r="202.34"/>
  <g>
    <path class="cls-1" d="M100.32,205.88c0,135.95,78.84,133.26,102.02,133.26s102.02-6.2,102.02-133.26"/>
    <path class="cls-2" d="M102.32,205.88c-1.21,54.13,12.39,120.22,75.18,130.22,63.35,8.62,106.75-19.78,118.61-83.49,2.79-15.35,3.74-31.05,3.25-46.73-.09-2.76,2.08-5.07,4.84-5.16,2.87-.1,5.26,2.29,5.16,5.16-.58,20.23-3.05,40.63-8.92,60.11-11.24,37.19-36.07,65.26-75.22,72.78-7.96,1.57-16.1,2.21-24.14,2.06-13,.02-26.38-1.24-38.73-5.66-37.1-12.91-53.56-48.07-60-84.4-.35-2.11-1.04-6.81-1.4-8.92-1.02-7.02-1.78-16.81-2.21-23.95,0,0-.44-12.02-.44-12.02.02-2.7,3.99-2.8,4.02,0h0Z"/>
  </g>
  <path class="cls-2" d="M305.66,232.07c1.67-6.98,4.67-13.93,10.43-18.72,5.71-4.95,14.12-4.86,19.75.2,5.56,4.89,8.02,11.5,9.42,18.31,3.72,19.19-4.44,40.15-20.85,50.94-10.35,7.02-22.86,9.87-35.08,9.93-1.37-.02-1.59-1.99-.23-2.28,8.54-1.8,16.76-4.32,24.19-8.7,11.93-6.68,20.55-18.78,22.5-32.13,1.17-7.75.63-16.03-2.62-23.11-1.67-3.45-4.2-7.48-8.29-7.78-7.21.56-12.67,9.05-17.15,14.31-.74,1-2.37.21-2.07-.98h0Z"/>
  <g>
    <ellipse class="cls-1" cx="202.34" cy="202.34" rx="102.02" ry="12.12"/>
    <path class="cls-2" d="M309.36,202.34c0,4.66-4.65,7.17-8.25,8.42-6.61,2.31-13.37,3.26-20.12,4.2-43.5,4.96-87.34,2.76-130.82-.86-7.81-.96-50.42-4.04-50.61-11.75.11-7.72,43.13-10.83,50.61-11.76,43.47-3.63,87.32-5.83,130.82-.86,6.75.94,13.5,1.89,20.12,4.2,3.59,1.24,8.25,3.76,8.25,8.42h0ZM299.36,202.34c0,.97.27,1.5.73,2.07.1.1-.03-.04-.27-.18-6.14-2.9-13.37-3.72-20.17-4.91-16.95-2.49-34.22-3.92-51.37-4.99-34.52-1.96-69.37-3.01-103.79,1.08-4.88.73-21.87,2.79-23.41,6.92.32,1.55,3.01,2.41,4.48,3.02,6.09,2.11,12.55,3.02,18.94,3.9,34.41,4.09,69.26,3.04,103.79,1.08,17.15-1.07,34.42-2.5,51.37-4.99,6.8-1.19,14.03-2.01,20.17-4.91.24-.14.37-.27.27-.18,0,0-.13.16-.13.16-.3.52-.63,1.03-.59,1.92h0Z"/>
  </g>
  <g>
    <path class="cls-1" d="M197.67,209.37c0-41.03,14.99-64.64,14.99-64.64"/>
    <path class="cls-2" d="M192.67,209.37c.42-7.05,1.22-14.44,2.47-21.41,2.98-15.45,7.74-30.66,16.24-44.05,0,0,.83-1.26.83-1.26,0,0,2.43,1.54,2.43,1.54l-.71,1.34c-7.25,14.68-10.39,31.27-11.28,47.52-.44,6.96,0,14.34.13,21.31,0,0-10.51,0-10.51,0l.39-5h0Z"/>
  </g>
  <g>
    <path class="cls-1" d="M210.72,152.56c-47.14-34.9-44.02-83.07-16.21-108.65,51.52,26.33,28.04,87.34,16.21,108.65Z"/>
    <path class="cls-2" d="M211.08,154.18c-.96.59-3.39.25-4.71-.45-1.82-.44-3.34-1.5-4.71-2.73-2.08-1.79-4.11-3.65-6.08-5.58-20.26-19.41-31.26-48.91-21.07-76.15,3.82-10.36,10.37-19.6,18.88-26.58,0,0,1.88-.26,1.88-.26,4.57-1.09,8.68.82,12.09,3.6,5.62,4.22,10.52,9.39,14.34,15.34,17.01,27.29,7.65,62.67-7.44,88.65-.85,1.3-1.81,3.38-3.19,4.16h0ZM210.37,150.94c-.19-.25-.48-.29-.58-.26-.02-.01-.06.05-.03-.02.04-.09.24-.55.29-.66,9.22-21.66,16.16-47.43,9.42-70.63-2.79-9.05-8.04-17.09-15.3-23.17-3.95-3.3-8.59-5.54-10.42-10.83,0,0,1.88-.26,1.88-.26-7.14,7.44-12.52,16.4-15.31,26.07-7.55,25.02,3.08,50.52,21.38,67.97,1.82,1.76,3.71,3.46,5.65,5.1,1.35,1.05,2.61,2.25,3.38,3.82-.53.74-.79,1.38-.36,2.84h0Z"/>
  </g>
  <g>
    <path class="cls-1" d="M212.05,151.46c30.54-55.82,77.62-63.96,104.52-41.85-21.88,58.23-82.94,48.81-104.52,41.85Z"/>
    <path class="cls-2" d="M207.41,153.31c-.07-2.54.83-5.59,2.39-7.82,16.18-26.86,43.96-52.04,77.29-49.86,11.22.76,22.2,5.16,30.69,12.52,0,0,1.04.79,1.04.79,0,0-.47,1.34-.47,1.34-15.34,45.74-60.51,57.58-103.84,47.03-.39-.12-2.34-.59-2.74-.73-1.7-.41-3.49-1.8-4.36-3.27h0ZM216.7,149.61c-.09-1.09-1.09-2.31-2.13-2.57.18.06.58.19.77.25,40.14,12.51,82.84,4.21,99.47-38.35,0,0,.57,2.13.57,2.13-16.48-13.24-40.1-12.68-57.93-2.58-15.91,8.65-28.19,22.99-37.24,38.52-.82,1.39-1.61,2.83-2.39,4.25,0,0-.05.08-.02.04.24-.65-.29-1.38-1.09-1.7h0Z"/>
  </g>
  <g>
    <rect class="cls-1" x="90.26" y="220.07" width="151.64" height="104.89"/>
    <path class="cls-2" d="M119.69,256.78h-19.66l-4.58,7.49h-6.97l22.73-36.4h6.76l9.93,36.4h-6.19l-2.03-7.49ZM103.41,251.17h14.92l-4.47-17.16-10.45,17.16Z"/>
    <path class="cls-2" d="M142.15,259.75l3.64-4.47c2.55,2.5,7.02,4.16,11.7,4.16,5.82,0,9.98-2.55,9.98-6.14,0-3.07-2.29-4.58-8.37-5.51-8.48-1.25-12.43-4.26-12.43-9.72,0-6.5,6.19-10.92,15.24-10.92,5.93,0,9.52,1.14,13.31,4.47l-3.64,4.32c-2.24-2.18-5.98-3.43-10.09-3.43-5.15,0-8.79,2.08-8.79,5.1,0,2.55,2.5,4.11,8.01,4.99,9,1.4,12.84,4.47,12.84,10.19,0,7.33-6.4,12.22-16.17,12.22-6.14,0-11.86-2.03-15.24-5.25Z"/>
    <path class="cls-2" d="M181.46,238.58h5.93l-4.52,25.69h-5.93l4.52-25.69ZM181.98,230.99c.42-1.98,2.24-3.43,4.37-3.43s3.48,1.61,3.12,3.74c-.31,1.98-2.18,3.43-4.26,3.43-2.18,0-3.59-1.61-3.22-3.74Z"/>
    <path class="cls-2" d="M219.53,251.63c-1.4,8.01-7.07,13.21-14.51,13.21-3.9,0-6.97-1.3-8.68-3.48l-2.55,14.77h-5.93l6.55-37.55h5.36l-.47,3.02c2.34-2.29,5.72-3.59,9.57-3.59,7.33,0,12.01,6.03,10.66,13.62ZM207.31,243.37c-4.68,0-8.48,3.33-9.31,8.11-.88,4.84,1.82,8.06,6.45,8.06s8.48-3.38,9.31-8.16c.83-4.73-1.82-8.01-6.45-8.01Z"/>
    <path class="cls-2" d="M119.69,306.78h-19.66l-4.58,7.49h-6.97l22.73-36.4h6.76l9.93,36.4h-6.19l-2.03-7.49ZM103.41,301.17h14.92l-4.47-17.16-10.45,17.16Z"/>
    <path class="cls-2" d="M174.03,288.58l-13.16,25.69h-6.5l-1.09-6.76-1.51-10.61-5.25,10.61-3.38,6.76h-6.71l-4.16-25.69h5.98l1.35,9.46,1.14,9.36,9.62-18.82h5.1l2.91,18.88,4.63-9.41,4.68-9.46h6.34Z"/>
    <path class="cls-2" d="M203.67,288.58l-4.52,25.69h-5.3l.47-3.02c-2.34,2.29-5.67,3.59-9.57,3.59-7.33,0-12.01-6.03-10.66-13.62,1.4-8.01,7.07-13.21,14.46-13.21,4.26,0,7.59,1.56,9.15,4.16l.68-3.59h5.3ZM195.61,301.37c.83-4.78-1.82-8.06-6.45-8.06s-8.48,3.38-9.31,8.16c-.88,4.73,1.82,8.01,6.45,8.01s8.42-3.33,9.31-8.11Z"/>
    <path class="cls-2" d="M235.28,288.58l-4.63,26.21c-1.51,8.17-6.24,12.22-14.51,12.22-4.11,0-8.16-1.3-11.13-3.64l3.12-4.63c2.39,1.82,5.3,2.91,8.11,2.91,4.73,0,7.85-2.76,8.74-7.54l.52-2.86c-2.5,2.34-5.46,3.43-8.79,3.43-6.6,0-10.09-4.89-8.79-12.27l2.5-13.83h5.93l-2.44,13.68c-.83,4.68.99,7.23,5.1,7.23s7.23-3.17,8.01-7.54l2.29-13.36h5.98Z"/>
  </g>
</svg>